:FULLY-SPECIFIED
:DEGREES
196
root -0.567874014377594 -0.567874014377594 -0.567874014377594 -0.5678755879732001 -0.5678755879732001 -0.5678755879732001
lhipjoint -9.671654586443837e-08 -1.5341245206083327e-07 1.0672170578144923e-06
lfemur -17.411745335986407 -4.064057325032321 -14.200768393004925
ltibia 18.672109898245104 -9.271680243032962e-07 3.862381129636955e-07
lfoot -14.576733594547338 3.705435259436078e-08 13.330466542735547
ltoes -51.94089071322482 2.1537428814335878e-07 -1.015874050591438e-06
rhipjoint 1.1005675908711953e-07 6.870210827458292e-07 -1.494104084495789e-06
rfemur -6.858057622486872 5.195218613856473 10.141148129612173
rtibia -1.853358597791443 -5.336767199996167e-08 -8.710909268257268e-07
rfoot -13.031956540154724 1.1625288671760968e-06 -18.5554246540119
rtoes -3.8574180625432244 -2.875620400822262e-07 -3.29801231140559e-07
lowerback 26.87447041213508 0.46980783859186287 -1.6799126672864335
upperback 2.6345535867054237 0.2979738594114027 1.4164586106207018
thorax -12.04972069599353 0.28320707046711446 2.475206340586084
lowerneck -11.457395592112624 -2.029057957114028 -1.9248847656666397
upperneck 23.5797988923852 -3.0151462414105206 2.3060364286666197
head 9.370881229926802 -1.331763944747426 0.7745436119620046
lclavicle -1.4085775951116125e-07 5.4855408257763046e-08 -1.0938974842598547e-06
lhumerus 66.43649190571615 25.022929071549683 68.65626240483527
lradius 22.184727631768215 -1.498229543806459e-07 1.2557713313286287e-06
lwrist -1.6855562758801753e-06 -58.38602113858893 4.064259840822553e-07
lhand -4.562975323145072 2.6246558075710764e-07 -26.656099019086014
lfingers 7.125022823272814 9.845282338726802e-08 3.18924141240953e-07
lthumb 21.213298854421275 -1.2803152392500461e-07 2.20318914769186
rclavicle 1.398304276268298e-07 4.3880174074018323e-07 -1.3740421654916584e-06
rhumerus 59.534736013580016 -20.920591097540377 -45.073579465073045
rradius 31.038264720748863 -2.05621995045743e-07 -3.0066160999326407e-06
rwrist 4.3619561967862945e-07 42.71523125788353 9.750824444686077e-07
rhand -6.972260092956778 2.0321462048512455e-07 -36.68780446630613
rfingers 7.125022396385991 5.1024341088409163e-08 -3.1892353057445414e-07
rthumb 18.897492480477187 1.5447771905696147e-06 -65.78980959509936
197
root -0.567874014377594 -0.567874014377594 -0.567874014377594 -0.5678755879732001 -0.5678755879732001 -0.5678755879732001
lhipjoint -9.671654586443837e-08 -1.5341245206083327e-07 1.0672170578144923e-06
lfemur -17.043251507622344 -4.069494155611651 -14.156207385086114
ltibia 18.743061903343197 -1.159631458194596e-06 3.4936515376392796e-07
lfoot -15.030258155436185 -9.561431318958033e-07 13.695992653905241
ltoes -51.9590487711333 -2.0008846601093277e-07 -1.8691880685249042e-06
rhipjoint 1.1005675908711953e-07 6.870210827458292e-07 -1.494104084495789e-06
rfemur -6.983269504125192 5.47503993820767 10.268792412368665
rtibia -1.2410729063914085 -5.3244520922695407e-08 -1.719193516858084e-06
rfoot -13.370406073907196 1.0739492488532152e-06 -18.20404044951872
rtoes -3.799592400369427 1.422979350264779e-06 -4.262307637505421e-07
lowerback 26.25029869747534 0.5386833594605657 -1.6373466082137966
upperback 2.7026102319256653 0.3742943931971252 1.2411685290397887
thorax -11.789467436727595 0.3084923774136488 2.2496329399440658
lowerneck -11.457395592112624 -2.029057957114028 -1.9248847656666397
upperneck 23.5797988923852 -3.0151462414105206 2.3060364286666197
head 9.370881229926802 -1.331763944747426 0.7745436119620046
lclavicle -1.4085775951116125e-07 5.4855408257763046e-08 -1.0938974842598547e-06
lhumerus 60.957129738424335 28.350054235140878 62.14964661656271
lradius 23.033421324824612 7.351777339556811e-07 1.5636679551557612e-06
lwrist -1.6149360539549579e-06 -57.50294598079798 3.8940088198338026e-07
lhand -4.562975323145072 2.6246558075710764e-07 -26.656099019086014
lfingers 7.125022823272814 9.845282338726802e-08 3.18924141240953e-07
lthumb 21.213298854421275 -1.2803152392500461e-07 2.20318914769186
rclavicle 1.398304276268298e-07 4.3880174074018323e-07 -1.3740421654916584e-06
rhumerus 54.041020203747415 -24.283499622193272 -41.24632394479142
rradius 31.453113335462515 5.190420973548923e-07 -2.4358232736889678e-06
rwrist 4.167224319192133e-07 41.622841537882955 9.315491493214811e-07
rhand -6.972260092956778 2.0321462048512455e-07 -36.68780446630613
rfingers 7.125022396385991 5.1024341088409163e-08 -3.1892353057445414e-07
rthumb 18.897492480477187 1.5447771905696147e-06 -65.78980959509936
198
root -0.567874014377594 -0.567874014377594 -0.567874014377594 -0.5678755879732001 -0.5678755879732001 -0.5678755879732001
lhipjoint -9.671654586443837e-08 -1.5341245206083327e-07 1.0672170578144923e-06
lfemur -16.737827646054175 -4.030425473559178 -14.107905994823078
ltibia 18.919048557497746 -8.510946523211784e-07 -4.733618005755905e-07
lfoot -15.542986796050702 1.280495996533703e-06 13.983296023605364
ltoes -52.06690087322238 -1.081030639351525e-06 1.7374188585159935e-06
rhipjoint 1.1005675908711953e-07 6.870210827458292e-07 -1.494104084495789e-06
rfemur -7.095720457959813 5.656079651687559 10.4337918534696
rtibia -0.6371337595179823 -2.5763561586227457e-08 -6.029753610241472e-09
rfoot -13.76237611622224 5.436055974931474e-07 -17.760187436494608
rtoes -3.7871080952271132 -2.8353545785549337e-07 -3.6666177345485013e-07
lowerback 25.62070210506732 0.5894043975979332 -1.5547696211483426
upperback 2.6341847564902428 0.4467080054167475 1.117596639854212
thorax -11.627464741125001 0.3316466653391391 2.0500268513093785
lowerneck -11.457395592112624 -2.029057957114028 -1.9248847656666397
upperneck 23.5797988923852 -3.0151462414105206 2.3060364286666197
head 9.370881229926802 -1.331763944747426 0.7745436119620046
lclavicle -1.4085775951116125e-07 5.4855408257763046e-08 -1.0938974842598547e-06
lhumerus 54.6599651161448 31.08228870504418 54.918743908323655
lradius 23.7714215570972 -1.8304443325059373e-07 1.9333090686807066e-06
lwrist -1.5699751223112907e-06 -56.91289618368433 3.7855742963008543e-07
lhand -4.562975323145072 2.6246558075710764e-07 -26.656099019086014
lfingers 7.125022823272814 9.845282338726802e-08 3.18924141240953e-07
lthumb 21.213298854421275 -1.2803152392500461e-07 2.20318914769186
rclavicle 1.398304276268298e-07 4.3880174074018323e-07 -1.3740421654916584e-06
rhumerus 47.88933519569456 -26.96332775814236 -36.89914417960467
rradius 31.839292231135033 -2.2216576472134403e-07 -3.1928425127531955e-06
rwrist 4.0060381334899286e-07 40.67861911154747 8.955179938903659e-07
rhand -6.972260092956778 2.0321462048512455e-07 -36.68780446630613
rfingers 7.125022396385991 5.1024341088409163e-08 -3.1892353057445414e-07
rthumb 18.897492480477187 1.5447771905696147e-06 -65.78980959509936
199
root -0.567874014377594 -0.567874014377594 -0.567874014377594 -0.5678755879732001 -0.5678755879732001 -0.5678755879732001
lhipjoint -9.671654586443837e-08 -1.5341245206083327e-07 1.0672170578144923e-06
lfemur -16.476516561240533 -4.000685976139296 -14.053289240898717
ltibia 19.127505930966535 -6.222899249799347e-07 4.471985068769967e-07
lfoot -16.071558060445064 9.59499558528933e-07 14.213556214678482
ltoes -52.22604769597827 -6.461990450758068e-07 1.535808331701137e-06
rhipjoint 1.1005675908711953e-07 6.870210827458292e-07 -1.494104084495789e-06
rfemur -7.162915859014398 5.7413344997944815 10.611886474756744
rtibia -0.11247955525176999 -4.964168399617398e-09 -1.708634075315625e-06
rfoot -14.173638027847987 -4.191405694768738e-07 -17.270421891869674
rtoes -3.752178080924845 5.696279290082587e-07 -4.931495324707847e-07
lowerback 24.969709945084237 0.6270114191680234 -1.4680947340242922
upperback 2.453225297733102 0.5110893418528613 1.0390903388123798
thorax -11.529080988772845 0.3525744183169111 1.891430072225094
lowerneck -11.457395592112624 -2.029057957114028 -1.9248847656666397
upperneck 23.5797988923852 -3.0151462414105206 2.3060364286666197
head 9.370881229926802 -1.331763944747426 0.7745436119620046
lclavicle -1.4085775951116125e-07 5.4855408257763046e-08 -1.0938974842598547e-06
lhumerus 47.64678151788907 33.16277115641923 47.27695067999497
lradius 24.330790144459147 -9.288086816301823e-07 1.4109705935650708e-06
lwrist -1.5666672436648188e-06 -56.86853752011969 3.7776040807134814e-07
lhand -4.562975323145072 2.6246558075710764e-07 -26.656099019086014
lfingers 7.125022823272814 9.845282338726802e-08 3.18924141240953e-07
lthumb 21.213298854421275 -1.2803152392500461e-07 2.20318914769186
rclavicle 1.398304276268298e-07 4.3880174074018323e-07 -1.3740421654916584e-06
rhumerus 41.17889973239964 -28.92031868177629 -32.233076542448366
rradius 32.16140736748742 6.257137284834366e-07 -3.0214675091844537e-06
rwrist 3.9227338086061595e-07 40.17565422635149 8.76895006563961e-07
rhand -6.972260092956778 2.0321462048512455e-07 -36.68780446630613
rfingers 7.125022396385991 5.1024341088409163e-08 -3.1892353057445414e-07
rthumb 18.897492480477187 1.5447771905696147e-06 -65.78980959509936
